PathFileType  4	(X/Y/Z) C:\Users\antoi\Documents\MyRepositories\mobilecap\ResultsAnalysis
DataRate	CameraRate	NumFrames	NumMarkers	Units	OrigDataRate	OrigDataStartFrame	OrigNumFrames
100.0	100.0	6	51	mm	100.0	174	231
Frame#	Time	r_knee			r_shank_antsup			r_ankle			r_calc			r_5meta			r_toe			L_knee			L_shank_antsup			L_ankle			L_calc			L_5meta			L_toe			r_sh2			r_sh3			r_sh4			L_sh2			L_sh3			r_thigh1			r_thigh2			r_thigh3			r_thigh4			r_thigh5			L_thigh1			L_thigh2			L_thigh3			L_thigh4			r.ASIS			r.PSIS			L.ASIS			L.PSIS			C7			R_Shoulder			L_Shoulder			R_Sternum			L_Sternum			R_humerus			R_elbow_med			R_elbow_lat			R_forearm			R_wrist_radius			R_wrist_ulna			L_humerus			L_elbow_med			L_elbow_lat			L_forearm			L_wrist_radius			L_wrist_ulna			R_HJC			L_HJC			R_HJC_reg			L_HJC_reg			
		X1	Y1	Z1	X2	Y2	Z2	X3	Y3	Z3	X4	Y4	Z4	X5	Y5	Z5	X6	Y6	Z6	X7	Y7	Z7	X8	Y8	Z8	X9	Y9	Z9	X10	Y10	Z10	X11	Y11	Z11	X12	Y12	Z12	X13	Y13	Z13	X14	Y14	Z14	X15	Y15	Z15	X16	Y16	Z16	X17	Y17	Z17	X18	Y18	Z18	X19	Y19	Z19	X20	Y20	Z20	X21	Y21	Z21	X22	Y22	Z22	X23	Y23	Z23	X24	Y24	Z24	X25	Y25	Z25	X26	Y26	Z26	X27	Y27	Z27	X28	Y28	Z28	X29	Y29	Z29	X30	Y30	Z30	X31	Y31	Z31	X32	Y32	Z32	X33	Y33	Z33	X34	Y34	Z34	X35	Y35	Z35	X36	Y36	Z36	X37	Y37	Z37	X38	Y38	Z38	X39	Y39	Z39	X40	Y40	Z40	X41	Y41	Z41	X42	Y42	Z42	X43	Y43	Z43	X44	Y44	Z44	X45	Y45	Z45	X46	Y46	Z46	X47	Y47	Z47	X48	Y48	Z48	X49	Y49	Z49	X50	Y50	Z50	X51	Y51	Z51	

174	1.73000000	-94.58510	444.68843	-409.58003	-120.31348	408.69150	-382.17674	-285.64740	104.49658	-449.21694	-361.01347	71.73926	-505.83662	-187.89534	39.89776	-404.12891	-139.49829	53.74107	-456.56584	-104.20217	461.85476	-749.95207	-87.79992	376.01843	-767.85395	-261.33799	102.17301	-753.16328	-335.35505	61.79546	-707.31752	-154.51318	39.88785	-782.24526	-109.35293	57.05922	-726.43135	-171.15461	304.80723	-385.37125	-56.68899	386.17212	-418.65508	-108.17099	284.74610	-439.43808	-164.75663	420.38005	-767.30120	-214.87948	309.05747	-774.68198	-226.45444	698.70596	-355.95339	-161.64126	604.48723	-355.27648	-112.40318	615.56556	-381.12039	-175.44086	732.81859	-448.92609	-106.52869	645.17386	-441.74738	-237.01882	745.47632	-728.29642	-168.73743	623.40749	-756.54233	-333.73021	687.69946	-717.88064	-262.24705	567.86245	-715.33551	-221.42108	838.36051	-414.77353	-395.07359	913.28179	-587.41815	-223.29473	823.08537	-649.46185	-396.14648	912.98916	-490.82500	-150.73983	1332.24257	-554.64982	-80.70065	1318.78684	-424.51807	-76.57694	1296.19229	-682.59905	-60.76926	1216.04925	-527.07364	-63.96301	1206.42335	-556.87023	-66.04268	1228.55858	-212.36379	-80.52203	1120.76146	-148.41187	-70.68573	1189.69678	-123.21565	60.43873	1232.45241	-164.70474	142.18694	1249.87069	-219.27976	158.59720	1247.93159	-176.67486	-122.23305	1135.83068	-845.75352	-162.20736	1005.91771	-855.06541	-148.98000	1048.72101	-911.30412	-13.08316	1089.45280	-861.01808	59.30129	1130.97987	-800.81379	80.96300	1093.81935	-812.37443	-311.81456	776.03234	-445.22892	-323.47209	777.08873	-635.53855	-241.17696	927.81893	-616.95561	-242.89677	927.35083	-461.74127	
175	1.74000000	-102.19646	450.40081	-406.22317	-128.62378	413.73142	-379.24279	-285.61910	105.16965	-448.77124	-360.52360	73.33293	-505.81292	-187.91080	39.80740	-403.93289	-139.31799	53.65725	-456.35323	-110.23233	467.08578	-748.90860	-93.91625	381.17432	-767.33735	-261.11557	102.79232	-753.71974	-335.08419	62.95102	-708.12251	-154.34546	39.84256	-782.08652	-109.18984	56.97619	-726.44813	-177.27989	308.87711	-383.25331	-64.08531	392.23530	-414.81129	-112.96675	289.89372	-435.80549	-171.59498	423.67363	-765.92116	-219.33901	311.10790	-774.48339	-226.56755	709.39977	-355.37159	-165.25342	612.78494	-353.63588	-114.87461	622.22910	-378.17835	-172.08052	741.94565	-447.13441	-106.79600	652.04277	-438.33466	-228.79308	758.26286	-727.50292	-166.19747	633.29518	-755.99428	-328.21500	705.33128	-719.78257	-262.83176	581.62546	-716.67225	-218.09804	852.82169	-412.13241	-388.60755	928.34403	-587.98461	-214.01676	839.23581	-647.08396	-391.50282	926.98638	-491.57190	-156.01995	1352.97318	-549.93585	-79.86875	1345.87130	-427.28323	-80.67369	1324.33807	-674.24371	-58.92035	1242.95206	-522.00892	-64.38526	1229.45683	-552.64924	-63.13127	1264.81690	-211.81197	-76.12124	1159.87672	-142.37306	-70.01255	1229.80189	-121.76217	54.12103	1279.16132	-173.31113	129.86640	1299.49887	-234.09090	148.86622	1302.20777	-192.50041	-123.36586	1173.38093	-845.99946	-159.01934	1041.78866	-862.02228	-147.89696	1089.03954	-915.93121	-18.07548	1137.75992	-858.07302	47.27088	1182.29857	-793.06212	73.18389	1148.54470	-805.98828	-307.41802	790.24318	-445.12252	-314.58812	792.69765	-635.63749	-234.01112	944.02450	-613.79291	-238.67604	941.83713	-458.52422	
176	1.75000000	-110.95272	456.84300	-402.98275	-138.03298	419.47268	-376.35240	-285.73674	106.13649	-448.20303	-360.00885	75.35321	-504.98826	-187.86586	39.61878	-403.70249	-139.07934	53.53437	-456.00769	-117.34775	473.60918	-748.12861	-101.14290	387.60061	-766.60498	-260.73275	103.97592	-754.45739	-334.56260	65.07019	-709.15649	-154.16265	39.75083	-782.09386	-108.92908	56.72750	-726.60869	-184.20183	313.65862	-380.91697	-72.43775	399.29290	-410.78110	-118.37581	295.84809	-431.88158	-179.84598	428.06468	-765.73911	-224.30104	314.01801	-774.79146	-226.99021	721.00962	-354.72307	-169.46928	621.87592	-352.07327	-118.05450	629.66777	-375.16131	-169.01162	751.65843	-445.26841	-107.56584	659.70995	-434.70396	-220.28523	771.95739	-726.45010	-163.75532	644.31955	-755.39680	-322.33759	724.29504	-721.66211	-263.54125	596.97233	-718.20233	-214.72415	868.00961	-409.48790	-381.86347	944.19609	-588.44108	-204.72585	856.84529	-644.79287	-386.66271	941.75501	-492.14345	-161.15392	1374.41662	-545.63091	-79.57777	1373.41611	-430.59532	-85.04134	1352.50305	-666.28122	-56.97904	1271.36782	-516.82699	-65.01287	1253.69610	-548.25498	-63.21885	1301.23449	-212.24157	-74.59371	1199.07371	-138.10408	-71.86823	1269.64339	-121.54991	45.86610	1322.78292	-181.60007	116.49781	1343.70408	-248.06276	136.97245	1350.83619	-207.56531	-126.74392	1212.08262	-845.78491	-158.73355	1079.25013	-868.55256	-149.39948	1130.44313	-920.15740	-25.30919	1184.37039	-855.57145	33.27469	1229.15144	-784.87191	62.89500	1198.73105	-799.35751	-302.72519	805.08917	-445.32795	-305.41184	809.59105	-635.92392	-226.66841	961.36199	-610.71579	-234.41478	957.42249	-455.33225	
177	1.76000000	-120.81524	464.11904	-400.10667	-148.63257	425.98835	-373.65310	-285.88502	107.44366	-447.29626	-359.34030	77.94076	-503.59964	-187.72102	39.34696	-403.46267	-138.72547	53.36038	-455.51987	-125.58668	481.72570	-747.74588	-109.46900	395.86090	-765.91125	-260.06463	106.20992	-755.66068	-333.65063	68.70063	-710.35087	-153.88012	39.59793	-782.23774	-108.35424	56.29770	-726.96271	-191.90671	318.96932	-378.58010	-81.87547	407.30158	-406.95089	-124.50886	302.50322	-428.13018	-189.30571	433.88669	-765.93369	-229.92728	318.38855	-775.26401	-227.63968	733.53184	-354.01028	-174.14457	632.06170	-350.46474	-121.94375	637.92942	-372.33182	-166.61451	761.97533	-443.46866	-108.91129	667.84173	-431.37893	-211.71545	786.54837	-724.93606	-161.48333	656.56073	-754.54959	-316.12113	744.56739	-723.56589	-264.35786	613.86700	-719.85336	-211.18405	883.99357	-406.89676	-374.68740	960.93436	-588.97709	-195.86806	875.66944	-642.34413	-381.50204	957.07918	-492.73649	-166.18262	1396.28190	-541.58643	-80.37972	1400.86092	-433.54812	-89.67833	1380.43603	-659.13320	-56.36641	1298.86518	-512.63733	-65.99533	1279.57628	-543.33800	-66.06007	1337.17708	-213.25329	-76.22691	1237.14826	-135.48876	-75.96959	1308.75746	-121.43549	36.52129	1362.85152	-189.04548	103.56783	1382.20501	-260.41226	124.60917	1393.02133	-221.34511	-132.18001	1251.08123	-845.39040	-161.66602	1117.57616	-874.55821	-153.40187	1171.80769	-923.74390	-34.32766	1227.72914	-852.77425	18.77324	1270.79768	-776.67943	51.02216	1243.34458	-792.41324	-297.75138	820.77658	-445.58154	-296.14944	827.38778	-636.13668	-219.57621	979.82923	-607.24045	-230.57028	973.60947	-451.93817	
178	1.77000000	-131.77815	472.29121	-397.58301	-160.47343	433.30045	-371.16082	-285.87322	109.09538	-445.99156	-358.44070	81.16214	-502.26828	-187.45991	39.13961	-403.16613	-138.24938	53.17668	-454.93222	-135.00478	491.49103	-747.08165	-118.84320	406.25575	-765.08420	-258.96432	110.05170	-757.22263	-331.89604	74.86562	-711.67371	-153.31177	39.52566	-782.54106	-107.29369	55.74084	-727.55992	-200.45857	324.75505	-376.45461	-92.65347	416.29057	-403.54872	-131.60638	309.98865	-424.73477	-199.86866	441.55070	-765.97694	-236.29238	324.80169	-775.65790	-228.29078	746.95287	-353.34489	-179.16044	643.41798	-348.75556	-126.37413	646.87518	-369.65052	-164.67218	772.80617	-441.82318	-110.89014	676.34298	-428.50373	-203.40310	802.18347	-722.86079	-159.39249	670.13955	-752.99943	-309.54975	766.04436	-725.39520	-265.09765	632.39706	-721.72909	-207.31046	901.01138	-404.03653	-367.00738	978.67621	-589.55301	-187.01731	895.61202	-639.10346	-375.92152	972.88491	-493.43102	-171.19100	1418.44893	-537.76189	-82.43607	1427.81317	-435.68163	-94.80055	1408.00715	-652.81322	-57.08717	1324.94442	-509.78553	-67.58140	1306.36468	-538.24368	-70.69323	1372.25863	-214.05973	-80.80117	1274.17413	-132.63043	-81.93849	1346.70804	-121.02344	26.79718	1398.90240	-195.16911	91.13194	1414.97473	-269.30380	112.83783	1428.95152	-232.81941	-139.11764	1289.33435	-844.78121	-167.77760	1155.93330	-879.98195	-159.41524	1212.19807	-926.36292	-44.53173	1266.78873	-849.13652	4.65351	1306.72250	-768.58320	38.43927	1281.71784	-784.99239	-292.36547	837.55919	-445.43344	-286.37907	845.90728	-635.82983	-212.81928	999.51864	-602.62533	-227.17500	990.19033	-447.82076	
179	1.78000000	-143.99353	481.40561	-395.33037	-173.65764	441.23450	-368.96070	-285.69794	111.30965	-444.45472	-357.34670	85.04901	-500.88728	-187.00679	39.05983	-402.80652	-137.66002	53.03851	-454.31097	-145.39457	503.31929	-745.72950	-129.04882	418.95198	-763.98562	-257.29109	116.16941	-758.78657	-328.57160	84.31033	-712.86854	-152.27048	39.60568	-782.87558	-105.68720	55.06186	-728.23059	-209.89806	331.33129	-374.59682	-104.94507	426.32151	-400.64830	-139.88459	318.73467	-421.54414	-211.33894	451.41460	-766.02898	-243.18612	333.44525	-776.09597	-228.80492	761.17348	-352.82046	-184.64377	655.55846	-347.35793	-131.28735	656.27616	-367.09238	-162.39141	784.07372	-440.16092	-113.61115	685.08440	-426.13408	-195.10852	819.09663	-720.21633	-157.30721	685.31033	-750.73802	-302.58939	788.70819	-726.95765	-265.53601	652.59595	-723.64902	-202.93388	919.09007	-401.00827	-359.01979	997.35924	-589.85837	-177.81869	917.08573	-635.29754	-369.77804	989.40183	-493.89181	-176.25147	1440.85902	-534.19518	-85.65750	1454.15250	-436.97930	-100.53274	1435.20957	-647.60419	-58.36911	1350.18196	-508.43296	-69.50215	1332.67902	-534.56784	-76.99356	1406.11450	-214.19904	-88.40700	1309.63478	-128.86180	-89.56635	1382.59166	-120.50878	17.21922	1430.60445	-199.31142	78.70772	1441.84629	-274.15598	102.30555	1459.00559	-240.70156	-146.60880	1325.58368	-843.61414	-176.88789	1193.17595	-883.86973	-166.75536	1250.44681	-927.74442	-55.03886	1301.08618	-844.77735	-8.68901	1336.84846	-760.42436	25.96673	1313.51883	-777.24053	-286.27947	855.28682	-445.13143	-275.83384	865.65577	-635.22592	-206.19292	1020.48218	-597.32342	-223.46200	1007.71093	-443.28617	
